<?xml version="1.0" encoding="UTF-8" standalone="no"?>
<!-- Created with Inkscape (http://www.inkscape.org/) -->

<svg
   xmlns:dc="http://purl.org/dc/elements/1.1/"
   xmlns:cc="http://creativecommons.org/ns#"
   xmlns:rdf="http://www.w3.org/1999/02/22-rdf-syntax-ns#"
   xmlns:svg="http://www.w3.org/2000/svg"
   xmlns="http://www.w3.org/2000/svg"
   xmlns:sodipodi="http://sodipodi.sourceforge.net/DTD/sodipodi-0.dtd"
   xmlns:inkscape="http://www.inkscape.org/namespaces/inkscape"
   version="1.1"
   id="svg10"
   width="644"
   height="254"
   viewBox="0 0 644 254"
   sodipodi:docname="jjj.svg"
   inkscape:version="0.92.3 (2405546, 2018-03-11)">
  <metadata
     id="metadata16">
    <rdf:RDF>
      <cc:Work
         rdf:about="">
        <dc:format>image/svg+xml</dc:format>
        <dc:type
           rdf:resource="http://purl.org/dc/dcmitype/StillImage" />
        <dc:title></dc:title>
      </cc:Work>
    </rdf:RDF>
  </metadata>
  <defs
     id="defs14" />
  <sodipodi:namedview
     pagecolor="#ffffff"
     bordercolor="#666666"
     borderopacity="1"
     objecttolerance="10"
     gridtolerance="10"
     guidetolerance="10"
     inkscape:pageopacity="0"
     inkscape:pageshadow="2"
     inkscape:window-width="1920"
     inkscape:window-height="1018"
     id="namedview12"
     showgrid="false"
     inkscape:zoom="1.1964286"
     inkscape:cx="300.29199"
     inkscape:cy="71.830574"
     inkscape:window-x="-8"
     inkscape:window-y="-8"
     inkscape:window-maximized="1"
     inkscape:current-layer="svg10" />
  <g
     id="g20"
     transform="translate(26.746272,-299.22387)">
    <path
       style="fill:#fcfcfc"
       d="m -24.238804,430.40298 v -127 h 322.000004 322 v 127 127 h -322 -322.000004 z m 37.693843,106.49828 c 4.41998,-1.31259 5.13639,-1.89945 5.688446,-4.65972 0.34738,-1.7369 0.454226,-3.33538 0.237435,-3.55217 -0.21679,-0.21679 -1.907415,0.5284 -3.756944,1.65598 -7.957552,4.8514 -15.86278,1.16514 -15.86278,-7.39692 v -4.54545 H 10.715883 21.67057 l 0.668486,-3.56334 c 1.072879,-5.71893 -0.1372,-11.4507 -3.027271,-14.33924 -3.667255,-3.66532 -10.935478,-3.5667 -15.894398,0.21565 -7.412774,5.654 -11.560865,20.41109 -8.206377,29.19469 1.700014,4.45143 3.463739,6.0183 8.491787,7.54401 3.711525,1.12623 4.186849,1.09925 9.752242,-0.55349 z M 0.761196,512.30727 c 0,-3.71515 6.840464,-9.90429 10.946584,-9.90429 2.328818,0 6.053416,4.89434 6.053416,7.95455 v 3.04545 h -8.5 c -5.494972,0 -8.5,-0.38737 -8.5,-1.09571 z m 60.703031,24.59126 c 3.716937,-1.10381 5.226298,-2.10245 5.667847,-3.75 1.217745,-4.54378 0.812889,-4.87995 -3.33104,-2.76587 -8.867776,4.524 -16.039838,1.19986 -16.039838,-7.43423 v -4.54545 h 10.893011 c 12.383698,0 12.106989,0.19439 12.106989,-8.50506 0,-17.49098 -21.244098,-15.50224 -26.759567,2.50506 -3.931356,12.83537 -1.136385,22.50763 7.204466,24.93172 4.311192,1.25296 4.613498,1.24011 10.258132,-0.43617 z M 49.29528,511.15298 c 1.26362,-4.25073 6.073026,-8.15 10.052319,-8.15 4.349482,0 6.413597,2.28217 6.413597,7.09113 v 3.30887 h -8.567388 c -8.416212,0 -8.555585,-0.0397 -7.898528,-2.25 z m 45.401276,24.89744 c 2.0878,-0.98368 4.71874,-6.32668 3.64435,-7.40106 -0.19478,-0.19478 -1.8674,0.56841 -3.71693,1.69599 -3.36593,2.05207 -8.39498,2.67322 -10.46308,1.29232 -5.29754,-3.53727 -4.27044,-18.95005 1.68789,-25.32846 3.35398,-3.59044 8.36366,-3.91232 12.33021,-0.79223 3.090514,2.43099 3.096884,2.42811 3.893064,-1.76152 0.53798,-2.83092 0.27581,-3.28114 -2.606364,-4.47576 -10.73518,-4.44962 -20.76154,2.92143 -23.69314,17.41843 -3.264026,16.14088 5.88415,25.4961 18.924,19.35229 z m 71.464944,0.95867 c 6.94632,-2.90236 11.5997,-12.65654 11.5997,-24.3147 0,-7.57523 -1.79773,-11.61833 -6.17171,-13.88021 -9.82032,-5.07828 -20.5756,5.47529 -21.60716,21.20193 -0.58987,8.99281 0.94178,13.9055 5.13196,16.46053 3.74139,2.28136 6.53878,2.41619 11.04721,0.53245 z m -8.82737,-6.17604 c -3.48121,-3.4812 -3.30889,-14.10698 0.34491,-21.26903 2.44593,-4.79441 4.96033,-6.39916 9.35556,-5.97095 5.6165,0.54719 7.39517,8.82821 4.20418,19.57347 -2.36001,7.947 -9.62082,11.95035 -13.90465,7.66651 z m 99.13284,6.06467 c 4.53907,-1.34796 5.12042,-1.84435 5.56298,-4.75 0.27181,-1.78461 0.40434,-3.35044 0.29451,-3.47962 -0.10983,-0.12918 -1.95164,0.65832 -4.09292,1.75 -8.63412,4.40193 -15.37535,1.35365 -15.76759,-7.12986 l -0.20275,-4.38526 11.19356,-0.28222 11.19356,-0.28223 0.68491,-4.5673 c 0.81748,-5.45134 -0.71548,-11.28311 -3.66838,-13.95545 -3.3874,-3.06555 -10.6565,-2.60143 -15.3523,0.98024 -9.76522,7.44829 -12.72628,28.79902 -4.77635,34.43991 4.75492,3.37386 7.96317,3.73094 14.93077,1.66179 z m -12.70577,-24.5444 c 0,-4.0667 6.20617,-9.95034 10.49579,-9.95034 2.7136,0 6.50421,4.63586 6.50421,7.95455 v 3.04545 h -8.5 c -5.26809,0 -8.5,-0.39911 -8.5,-1.04966 z m 46.25,23.40354 c 2.0935,-1.06977 2.75,-2.13476 2.75,-4.46112 v -3.05588 l -3.36803,2.08156 c -6.15047,3.8012 -11.71109,2.4019 -13.63628,-3.4315 -2.03735,-6.17323 1.08212,-17.82978 5.75524,-21.50566 3.26232,-2.56614 8.2872,-2.52573 11.61693,0.0934 2.22572,1.75076 2.72757,1.84019 3.21394,0.57273 1.36914,-3.56794 -0.0309,-6.12901 -4.0818,-7.46647 -7.49145,-2.47343 -15.32467,1.75608 -19.56272,10.56279 -3.22204,6.69542 -3.40996,19.77981 -0.34362,23.92556 3.77247,5.10046 10.82891,6.17336 17.65634,2.68456 z m 23.70317,-0.32054 3.04683,-2.16953 v 2.13765 c 0,1.64263 0.51891,2.06364 2.24086,1.81809 2.02999,-0.28948 2.45016,-1.44872 4.46529,-12.31955 2.60522,-14.05418 2.98408,-20.34178 1.40363,-23.29487 -1.69959,-3.17573 -8.02828,-4.57144 -14.57034,-3.21332 -4.61923,0.95895 -5.39365,1.46342 -5.84385,3.80682 -0.66976,3.48623 -0.42656,3.65184 3.40259,2.31699 4.20481,-1.46581 10.19483,-1.42261 11.70182,0.0844 0.66,0.66 1.2,2.45143 1.2,3.98095 0,2.97183 -0.31605,3.12476 -8.85497,4.28468 -9.53522,1.29526 -14.1349,6.28153 -14.14129,15.32982 -0.003,4.3597 0.45147,5.75067 2.57228,7.87148 2.1446,2.1446 3.22534,2.48892 6.45317,2.05598 2.13244,-0.28602 5.24823,-1.49632 6.92398,-2.68957 z m -9.75317,-4.23334 c -1.44563,-1.44563 -1.57121,-6.23788 -0.22917,-8.74549 1.23205,-2.30211 8.03152,-5.05451 12.48654,-5.05451 3.38559,0 3.41154,0.0343 2.83275,3.75 -0.96071,6.16744 -1.95034,7.86088 -5.60819,9.59665 -4.10821,1.94947 -7.80887,2.12641 -9.48193,0.45335 z m 97.73536,4.84744 c 2.0878,-0.98368 4.71874,-6.32668 3.64435,-7.40106 -0.19478,-0.19478 -1.8674,0.56841 -3.71693,1.69599 -3.36593,2.05207 -8.39498,2.67322 -10.46308,1.29232 -5.29754,-3.53727 -4.27044,-18.95005 1.68789,-25.32846 3.35398,-3.59044 8.36366,-3.91232 12.33021,-0.79223 3.09051,2.43099 3.09688,2.42811 3.89306,-1.76152 0.53798,-2.83092 0.27581,-3.28114 -2.60636,-4.47576 -10.73518,-4.44962 -20.76154,2.92143 -23.69314,17.41843 -3.26403,16.14088 5.88415,25.4961 18.924,19.35229 z m 24.28158,-0.64971 2.78306,-2.0576 v 2.02993 c 0,1.46962 0.655,2.02994 2.37294,2.02994 2.19544,0 2.49178,-0.65456 3.96147,-8.75 3.81859,-21.03373 3.99124,-22.79754 2.53101,-25.85726 -2.00876,-4.20913 -7.98175,-5.92558 -15.31933,-4.40231 -5.21362,1.08235 -5.54609,1.3281 -5.54609,4.09952 0,2.7338 0.19995,2.89288 2.75,2.18793 1.5125,-0.41813 4.75371,-0.7642 7.2027,-0.76906 3.84935,-0.008 4.66235,0.37146 6,2.79764 1.43944,2.61082 1.41199,2.90708 -0.39383,4.25 -1.06762,0.79394 -3.54262,1.47778 -5.5,1.51962 -12.36249,0.26427 -20.54401,11.18077 -15.94479,21.27496 2.25482,4.94878 9.55933,5.7452 15.10286,1.64669 z m -9.64551,-4.56916 c -5.12443,-5.12442 2.30957,-13.42857 12.02145,-13.42857 3.56264,0 3.64097,0.0807 3.03212,3.125 -0.34375,1.71875 -0.625,3.95253 -0.625,4.96395 0,2.37397 -6.67047,6.91105 -10.16071,6.91105 -1.48304,0 -3.40358,-0.70714 -4.26786,-1.57143 z M 35.929017,511.40298 c 2.585973,-14.025 4.731112,-26.0625 4.766974,-26.75 0.03586,-0.6875 -1.02404,-1.25 -2.35534,-1.25 -1.838525,0 -2.554844,0.66124 -2.979078,2.75 -2.206057,10.86176 -8.600377,47.45011 -8.600377,49.21143 0,1.68216 0.50811,2.10496 2.233026,1.85812 2.097838,-0.3002 2.517672,-1.86332 6.934795,-25.81955 z m 83.225193,24.41821 c 1.2986,-3.38409 0.65478,-4.0918 -3.64301,-4.00452 -4.14541,0.0842 -4.25833,1.8e-4 -4.58858,-3.41369 -0.18622,-1.925 0.449,-8.1125 1.41159,-13.75 l 1.75018,-10.25 h 5.3384 c 2.93613,0 5.34455,-0.3375 5.35206,-0.75 0.008,-0.4125 0.285,-1.7625 0.61664,-3 0.56859,-2.12171 0.30714,-2.25 -4.58561,-2.25 h -5.18859 l 0.68718,-5.5 c 0.67532,-5.40508 0.64329,-5.5 -1.85609,-5.5 -2.33279,0 -2.60014,0.45518 -3.23045,5.5 -0.54147,4.33383 -1.06208,5.5 -2.45532,5.5 -2.42196,0 -3.43677,4.15151 -1.38875,5.68121 1.43479,1.07167 1.38041,2.31438 -0.58642,13.39975 -2.23633,12.60428 -2.14537,15.65705 0.54669,18.34911 2.17168,2.17168 10.98557,2.16283 11.82008,-0.0119 z m 10.98716,-0.16821 c 0.28322,-0.9625 1.46629,-7.15 2.62903,-13.75 1.42826,-8.10711 2.6618,-12.44014 3.80244,-13.35674 3.01785,-2.42509 7.62992,-3.97267 10.31157,-3.46004 2.32137,0.44376 2.67641,0.13543 3.09015,-2.68356 0.30761,-2.09587 0.008,-3.36109 -0.87519,-3.70014 -1.94011,-0.74448 -6.29398,0.53283 -9.43155,2.76697 -3.48722,2.48312 -3.72613,2.44018 -3.15137,-0.56649 0.40819,-2.13533 0.10782,-2.5 -2.05922,-2.5 -2.88892,0 -2.42106,-1.50836 -6.20359,20 -1.40251,7.975 -2.77064,15.5125 -3.04028,16.75 -0.40416,1.85482 -0.0597,2.25 1.9614,2.25 1.47208,0 2.65742,-0.69923 2.96661,-1.75 z m 59.76676,-13.12728 c 1.53274,-8.32534 3.21649,-14.76005 4,-15.28659 6.51627,-4.37916 9.21672,-4.73695 11.33633,-1.50202 1.38362,2.11167 1.33982,3.42571 -0.45963,13.78842 -1.09395,6.29987 -2.27804,12.89952 -2.63131,14.66589 -0.59259,2.96293 -0.43908,3.21158 1.98268,3.21158 1.44375,0 2.62691,-0.1125 2.62925,-0.25 0.0558,-3.28332 5.31754,-28.43281 6.16134,-29.44953 2.06195,-2.48449 6.94827,-4.48871 9.42688,-3.86662 3.57519,0.89732 3.87105,4.31513 1.52345,17.599 -2.72061,15.39462 -2.71431,16.19158 0.12494,15.7867 2.03082,-0.2896 2.44822,-1.4443 4.4533,-12.31955 3.03563,-16.46482 3.00339,-21.89335 -0.14871,-25.04545 -1.35,-1.35 -3.38945,-2.45455 -4.53211,-2.45455 -2.87693,0 -8.23561,2.3553 -9.88578,4.3451 -1.79296,2.16195 -2.85412,2.0918 -3.59343,-0.23755 -0.78068,-2.45974 -5.73909,-4.49033 -8.71041,-3.56714 -1.27805,0.39709 -3.56122,1.59359 -5.07372,2.65888 -2.73789,1.92837 -2.75,1.92779 -2.75,-0.1312 0,-1.5023 -0.64095,-2.06809 -2.34284,-2.06809 -2.25049,0 -2.46735,0.69966 -5.50151,17.75 -3.82388,21.48813 -3.8237,21.48398 -0.90565,21.06955 2.06705,-0.29357 2.46522,-1.48856 4.89693,-14.69683 z m 148.85659,-0.12272 2.58297,-14.5 4.24847,-2.34794 c 5.18069,-2.86312 8.83462,-2.31673 9.78326,1.46295 0.35677,1.4215 -0.31137,8.0786 -1.48477,14.79356 -2.70404,15.47433 -2.7017,15.81159 0.10681,15.41098 2.01754,-0.28778 2.45955,-1.46281 4.44615,-11.81955 4.05965,-21.16417 2.79339,-27.45455 -5.52661,-27.45455 -2.63931,0 -5.11897,0.78758 -7.10676,2.25721 -2.99341,2.21313 -3.05304,2.21757 -3.05304,0.22728 0,-1.4986 -0.65438,-2.02994 -2.5,-2.02994 -1.375,0 -2.5,0.35465 -2.5,0.78812 0,1.00339 -5.77586,32.93442 -6.51763,36.03184 -0.49019,2.04685 -0.23224,2.28229 2.1913,2 2.71645,-0.31642 2.7755,-0.48059 5.32985,-14.81996 z m 35.65846,-3 c 3.97127,-21.75783 3.94103,-21 0.83802,-21 -1.375,0 -2.5,0.35465 -2.5,0.78812 0,0.43346 -1.35,8.17881 -3,17.21188 -3.68799,20.19021 -3.72673,21.24306 -0.76607,20.81955 2.06921,-0.29599 2.46945,-1.60994 5.42805,-17.81955 z M 321.2612,486.68273 c 5.24468,-7.46915 5.24578,-7.47461 1.43948,-7.1011 -2.8707,0.2817 -3.697,1.09251 -6.69692,6.57135 -3.41764,6.24174 -3.41907,6.24998 -1.08236,6.23815 1.70471,-0.009 3.42552,-1.55806 6.3398,-5.7084 z m 58.51365,4.47025 c 0.008,-0.6875 0.285,-2.2625 0.61664,-3.5 0.53089,-1.98102 0.2304,-2.25 -2.51366,-2.25 -1.81935,0 -3.12231,0.5203 -3.13028,1.25 -0.008,0.6875 -0.285,2.2625 -0.61664,3.5 -0.53089,1.98102 -0.2304,2.25 2.51366,2.25 1.81935,0 3.12231,-0.5203 3.13028,-1.25 z M 360.21741,468.5937 c 10.59683,-4.99455 22.50271,-17.50565 29.20608,-30.69072 6.58694,-12.95607 7.14657,-14.68011 20.28763,-62.5 6.12125,-22.275 11.37392,-41.30937 11.67262,-42.29859 0.51674,-1.71137 -1.14624,-1.78411 -34.28973,-1.5 l -34.83281,0.29859 -6.5,3.12574 c -15.76188,7.57962 -24,21.27647 -24,39.90286 0,9.2761 2.09724,16.05673 6.58962,21.30506 10.28977,12.02128 30.63492,13.60491 38.71347,3.01339 11.59158,-15.19735 -2.10463,-38.38856 -18.60083,-31.49601 -4.11145,1.71788 -9.6103,7.93918 -10.36865,11.73089 -0.62937,3.14687 -2.74124,3.90414 -3.72662,1.33628 -1.13931,-2.96899 -0.60987,-11.47555 0.94606,-15.20033 1.97264,-4.72237 5.84886,-8.81155 10.94695,-11.5484 3.6611,-1.96542 5.80039,-2.17675 25.25,-2.49435 11.6875,-0.19085 21.25,-0.0766 21.25,0.25384 0,1.24176 -20.18495,73.40656 -22.67608,81.07103 -1.4301,4.4 -3.41651,9.62741 -4.41425,11.61647 -2.03451,4.05593 -6.67472,9.88353 -7.86973,9.88353 -0.43025,0 -1.07007,-2.1695 -1.42182,-4.82111 -2.37898,-17.93364 -21.94695,-23.37402 -31.11812,-8.65161 -4.13709,6.64124 -4.23617,14.85479 -0.26089,21.62605 6.08316,10.36167 20.71893,12.87074 35.2171,6.03739 z M 29.133138,449.56882 c 13.736302,-6.82798 26.276143,-18.7381 39.303985,-37.33022 l 5.49056,-7.83562 h 10.023743 c 7.91812,0 9.91678,0.27874 9.51455,1.32694 -0.28005,0.72981 -2.82681,9.61731 -5.65946,19.75 -2.83264,10.13268 -5.38198,19.21056 -5.66518,20.17306 -0.46938,1.59525 0.50458,1.75 11.01373,1.75 h 11.528654 l 1.40664,-4.75 c 0.77365,-2.6125 3.54518,-12.25709 6.15895,-21.43243 l 4.75231,-16.68243 22.17707,-0.31757 c 24.52103,-0.35114 25.66593,-0.62636 29.62651,-7.1219 3.56658,-5.84935 4.18835,-5.69567 -23.044,-5.69567 -13.75,0 -25,-0.29105 -25,-0.64679 0,-0.35573 3.6,-13.56468 8,-29.35321 4.4,-15.78853 8,-29.0089 8,-29.3786 0,-0.3697 -7.06957,-0.54826 -15.71016,-0.39679 l -15.71016,0.27539 -19.427114,29.75 -19.427109,29.75 -12.612731,0.0131 c -24.66822,0.0257 -44.009871,6.70802 -55.753811,19.26233 -8.049171,8.60459 -10.68019,14.27262 -10.780489,23.22453 -0.09146,8.16305 2.237842,12.98726 7.986021,16.53983 5.422467,3.35127 8.323012,3.94484 17.307491,3.54182 7.369019,-0.33055 9.345649,-0.85955 16.5,-4.41581 z M 17.865363,434.50715 c -5.660866,-5.66087 1.014584,-19.55297 12.117399,-25.2172 5.023411,-2.56276 15.644836,-4.84696 22.643444,-4.86961 l 5.36501,-0.0174 -1.763374,2.75 c -6.624759,10.33138 -19.712447,23.23888 -27.136811,26.7632 -5.771362,2.73964 -8.911671,2.90496 -11.225668,0.59097 z m 65.047233,-43.88327 c 1.03584,-2.58721 26.380554,-43.11016 26.565864,-42.4754 0.12113,0.41498 -2.63474,10.2045 -6.12417,21.7545 l -6.344414,21 -7.22294,0.2958 c -3.97262,0.16269 -7.06607,-0.096 -6.87434,-0.5749 z m 88.733664,55.74019 c 5.60406,-5.60405 5.0823,-15.28643 -1.10426,-20.49208 -8.30691,-6.98981 -19.99428,2.85489 -16.86101,14.20265 2.54892,9.23143 11.78858,12.46613 17.96527,6.28943 z m 141.89815,1.47821 c 7.33142,-5.13513 6.75562,-18.79773 -0.97297,-23.08644 -7.27361,-4.03624 -15.78938,2.13184 -15.80365,11.4468 -0.0121,7.86771 4.42903,13.20034 10.99341,13.20034 1.95524,0 4.55769,-0.70232 5.78321,-1.5607 z m 137.22017,-1.28884 c 5.48925,-5.48924 5.21984,-14.99126 -0.56916,-20.07407 -3.88135,-3.40788 -7.05729,-3.83979 -11.46695,-1.55946 -3.93497,2.03485 -5.96727,6.30341 -5.96727,12.53341 0,4.52314 0.41365,5.56331 3.4,8.54966 4.57802,4.57802 10.35795,4.79589 14.60338,0.55046 z m 79.97392,-0.78482 c 1.72192,-1.44889 10.53144,-12.99194 19.57673,-25.65122 9.04528,-12.65927 16.44597,-22.7992 16.44597,-22.53318 0,0.26602 -2.475,8.73446 -5.5,18.81876 -6.05576,20.1878 -6.69878,25.60582 -3.3937,28.59501 1.90831,1.72593 3.81172,1.90499 20.25,1.90499 20.26479,0 22.95711,-0.68595 26.68418,-6.79855 3.43334,-5.63086 3.28428,-5.70145 -12.04048,-5.70145 -9.21448,0 -14,-0.36314 -14,-1.06235 0,-0.5843 3.40559,-12.3968 7.56798,-26.25 8.38442,-27.90491 9.57499,-34.5767 7.04367,-39.47175 -2.13942,-4.13718 -5.0018,-5.56104 -9.86739,-4.90842 -5.21038,0.69885 -7.19972,2.69381 -23.37658,23.44252 -7.39699,9.4875 -13.59474,17.25 -13.77278,17.25 -0.17805,0 2.56523,-9.5625 6.09616,-21.25 3.53093,-11.6875 6.66171,-23.275 6.9573,-25.75 1.40401,-11.75608 -10.8962,-16.19153 -20.59713,-7.42732 -2.10619,1.90282 -10.68047,13.37626 -19.05396,25.49654 -8.37349,12.12027 -15.35733,21.90049 -15.51966,21.73382 -0.16233,-0.16667 2.84371,-11.77804 6.68008,-25.80304 7.6065,-27.80781 8.45374,-33.55647 5.43732,-36.8929 -1.83718,-2.0321 -2.765,-2.1071 -26.06827,-2.1071 h -24.16328 l -4.70392,9.75 -4.70393,9.75 17.52219,0.27307 c 13.44748,0.20958 17.5222,0.57137 17.5222,1.55579 0,0.70549 -5.625,21.79845 -12.5,46.87324 -6.875,25.07479 -12.5,46.13196 -12.5,46.79371 0,1.93439 16.94236,0.93107 20.18433,-1.1953 1.42511,-0.93471 11.75414,-15.84402 22.95339,-33.13179 11.19925,-17.28777 20.45218,-31.3581 20.56205,-31.26741 0.10987,0.0907 -3.44025,12.075 -7.88916,26.63179 -9.2208,30.17038 -9.87998,34.78687 -5.50485,38.5522 3.90772,3.36307 9.5209,3.27288 13.67154,-0.21966 z m -258.24796,-0.32946 c 3.92075,-1.77981 8.25775,-6.86197 8.26692,-9.68729 0.003,-0.83364 -8.20129,-1.25981 -29.74626,-1.54523 -32.38696,-0.42905 -35.29943,-0.89708 -38.79668,-6.23456 -3.86317,-5.89594 -2.70283,-17.63042 2.56465,-25.93638 1.96336,-3.09589 5.6423,-6.36989 11.84208,-10.53862 4.94663,-3.32611 9.70175,-7.05809 10.56692,-8.29329 2.06379,-2.94647 1.96282,-6.68283 -0.42697,-15.80081 -2.33675,-8.9156 -2.45639,-11.97195 -0.63891,-16.32178 2.21096,-5.29158 4.22717,-6.67822 9.71034,-6.67822 h 4.92857 v 6.03212 c 0,7.4962 1.65449,11.57932 6.36938,15.71905 4.27741,3.75562 7.26673,4.69511 12.64419,3.97384 5.51828,-0.74016 9.8406,-4.21572 12.5924,-10.12551 3.57301,-7.67345 2.96537,-15.22311 -1.78299,-22.1529 -4.09388,-5.97462 -5.85994,-6.4466 -24.12194,-6.4466 -19.24133,0 -26.00506,1.53245 -34.15086,7.73753 -7.33358,5.58636 -10.55351,12.34707 -10.53831,22.12666 0.007,4.1997 0.67619,10.11081 1.48813,13.13581 0.81194,3.025 1.4816,5.55073 1.48813,5.61272 0.007,0.062 -2.97658,1.58394 -6.62913,3.38208 -8.07682,3.9762 -19.02302,14.39582 -22.63427,21.54541 -6.26082,12.39525 -5.20635,27.18125 2.43026,34.07744 8.35725,7.54698 12.49466,8.24245 49.34501,8.29458 28.48885,0.0403 31.3426,-0.11168 35.22934,-1.87605 z"
       id="path24"
       inkscape:connector-curvature="0" />
    <path
       style="fill:#040404"
       d="m 3.702797,537.45475 c -5.028048,-1.52571 -6.791773,-3.09258 -8.491787,-7.54401 -3.354488,-8.7836 0.793603,-23.54069 8.206377,-29.19469 4.95892,-3.78235 12.227143,-3.88097 15.894398,-0.21565 2.890071,2.88854 4.10015,8.62031 3.027271,14.33924 l -0.668486,3.56334 H 10.715883 -0.238804 v 4.54545 c 0,8.56206 7.905228,12.24832 15.86278,7.39692 1.849529,-1.12758 3.540154,-1.87277 3.756944,-1.65598 0.216791,0.21679 0.109945,1.81527 -0.237435,3.55217 -0.552056,2.76027 -1.268466,3.34713 -5.688446,4.65972 -5.565393,1.65274 -6.040717,1.67972 -9.752242,0.55349 z m 14.058399,-27.09722 c 0,-3.06021 -3.724598,-7.95455 -6.053416,-7.95455 -4.10612,0 -10.946584,6.18914 -10.946584,9.90429 0,0.70834 3.005028,1.09571 8.5,1.09571 h 8.5 z m 33.444899,26.97717 c -8.340851,-2.42409 -11.135822,-12.09635 -7.204466,-24.93172 2.832953,-9.24923 11.153589,-15.89907 18.232165,-14.57112 5.322906,0.99858 8.527402,5.53287 8.527402,12.06606 0,8.69945 0.276709,8.50506 -12.106989,8.50506 H 47.761196 v 4.54545 c 0,8.63409 7.172062,11.95823 16.039838,7.43423 4.143929,-2.11408 4.548785,-1.77791 3.33104,2.76587 -0.441549,1.64755 -1.95091,2.64619 -5.667847,3.75 -5.644634,1.67628 -5.94694,1.68913 -10.258132,0.43617 z m 14.555101,-27.24059 c 0,-4.80896 -2.064115,-7.09113 -6.413597,-7.09113 -3.979293,0 -8.788699,3.89927 -10.052319,8.15 -0.657057,2.2103 -0.517684,2.25 7.898528,2.25 h 8.567388 z m 17.21191,27.19041 c -6.23706,-1.81807 -9.252514,-10.43926 -7.20055,-20.58639 2.9316,-14.497 12.95796,-21.86805 23.69314,-17.41843 2.882174,1.19462 3.144344,1.64484 2.606364,4.47576 -0.79618,4.18963 -0.80255,4.19251 -3.893064,1.76152 -3.96655,-3.12009 -8.97623,-2.79821 -12.33021,0.79223 -5.95833,6.37841 -6.98543,21.79119 -1.68789,25.32846 2.0681,1.3809 7.09715,0.75975 10.46308,-1.29232 1.84953,-1.12758 3.52215,-1.89077 3.71693,-1.69599 0.19479,0.19478 0.002,1.68153 -0.42741,3.30389 -1.2031,4.54063 -8.599,7.17975 -14.94039,5.33127 z m 72.141184,-0.80788 c -4.19018,-2.55503 -5.72183,-7.46772 -5.13196,-16.46053 1.03156,-15.72664 11.78684,-26.28021 21.60716,-21.20193 4.37398,2.26188 6.17171,6.30498 6.17171,13.88021 0,18.23299 -11.66248,30.48014 -22.64691,23.78225 z m 11.98963,-6.1286 c 4.70177,-3.69841 7.32491,-18.07258 4.36973,-23.94506 -1.42501,-2.83177 -6.26263,-3.84629 -9.66298,-2.02648 -4.46326,2.38867 -8.3913,15.54407 -6.67869,22.36763 1.4342,5.71431 7.11498,7.42439 11.97194,3.60391 z m 79.15728,7.32218 c -9.41981,-2.35854 -12.24336,-15.41092 -6.19275,-28.62718 3.32941,-7.27239 8.45384,-11.14006 14.75992,-11.14006 7.85407,0 11.9554,6.19532 10.50486,15.86825 l -0.68491,4.5673 -11.19356,0.28223 -11.19356,0.28222 0.20275,4.38526 c 0.39224,8.48351 7.13347,11.53179 15.76759,7.12986 2.14128,-1.09168 3.98309,-1.87918 4.09292,-1.75 0.10983,0.12918 -0.0227,1.69501 -0.29451,3.47962 -0.44256,2.90565 -1.02391,3.40204 -5.56298,4.75 -5.17832,1.53779 -6.69172,1.65235 -10.20577,0.7725 z m 14.5,-27.31269 c 0,-3.31869 -3.79061,-7.95455 -6.50421,-7.95455 -4.28962,0 -10.49579,5.88364 -10.49579,9.95034 0,0.65055 3.23191,1.04966 8.5,1.04966 h 8.5 z m 17.09366,26.7502 c -5.83526,-2.06381 -7.60514,-5.60276 -7.51944,-15.03543 0.0848,-9.33008 2.56842,-15.92866 7.58391,-20.14892 8.44787,-7.10842 21.6042,-4.1613 18.42367,4.12704 -0.48637,1.26746 -0.98822,1.17803 -3.21394,-0.57273 -5.46094,-4.29556 -12.72425,-1.66728 -15.632,5.65657 -6.14872,15.48697 0.50883,26.22488 11.89611,19.18716 l 3.36803,-2.08156 v 3.05588 c 0,2.32636 -0.6565,3.39135 -2.75,4.46112 -4.3059,2.2003 -8.45197,2.66104 -12.15634,1.35087 z m 22.48236,-1.03782 c -2.12081,-2.12081 -2.57536,-3.51178 -2.57228,-7.87148 0.006,-9.04829 4.60607,-14.03456 14.14129,-15.32982 8.53892,-1.15992 8.85497,-1.31285 8.85497,-4.28468 0,-1.52952 -0.54,-3.32095 -1.2,-3.98095 -1.50699,-1.50699 -7.49701,-1.55019 -11.70182,-0.0844 -3.82915,1.33485 -4.07235,1.16924 -3.40259,-2.31699 0.4502,-2.3434 1.22462,-2.84787 5.84385,-3.80682 6.54206,-1.35812 12.87075,0.0376 14.57034,3.21332 1.58045,2.95309 1.20159,9.24069 -1.40363,23.29487 -2.01513,10.87083 -2.4353,12.03007 -4.46529,12.31955 -1.72195,0.24557 -2.24086,-0.17544 -2.24086,-1.81807 v -2.13765 l -3.04683,2.16953 c -1.67575,1.19325 -4.79154,2.40355 -6.92398,2.68957 -3.22783,0.43294 -4.30857,0.0886 -6.45317,-2.05598 z m 13.10591,-5.32028 c 3.65785,-1.73577 4.64748,-3.42921 5.60819,-9.59665 0.57879,-3.71565 0.55284,-3.75 -2.83275,-3.75 -4.45502,0 -11.25449,2.7524 -12.48654,5.05451 -1.34204,2.50761 -1.21646,7.29986 0.22917,8.74549 1.67306,1.67306 5.37372,1.49612 9.48193,-0.45335 z m 76.52998,6.53489 c -6.23706,-1.81807 -9.25251,-10.43926 -7.20055,-20.58639 2.9316,-14.497 12.95796,-21.86805 23.69314,-17.41843 2.88217,1.19462 3.14434,1.64484 2.60636,4.47576 -0.79618,4.18963 -0.80255,4.19251 -3.89306,1.76152 -3.96655,-3.12009 -8.97623,-2.79821 -12.33021,0.79223 -5.95833,6.37841 -6.98543,21.79119 -1.68789,25.32846 2.0681,1.3809 7.09715,0.75975 10.46308,-1.29232 1.84953,-1.12758 3.52215,-1.89077 3.71693,-1.69599 0.19479,0.19478 0.002,1.68153 -0.42741,3.30389 -1.2031,4.54063 -8.599,7.17975 -14.94039,5.33127 z m 24.15217,-0.003 c -6.19462,-3.13777 -5.64361,-16.10618 0.88408,-20.80765 3.291,-2.3703 7.84227,-3.90953 11.81071,-3.99436 1.95738,-0.0418 4.43238,-0.72568 5.5,-1.51962 1.80582,-1.34292 1.83327,-1.63918 0.39383,-4.25 -1.33765,-2.42618 -2.15065,-2.80526 -6,-2.79764 -2.44899,0.005 -5.6902,0.35093 -7.2027,0.76906 -2.55005,0.70495 -2.75,0.54587 -2.75,-2.18793 0,-2.77142 0.33247,-3.01717 5.54609,-4.09952 7.33758,-1.52327 13.31057,0.19318 15.31933,4.40231 1.46023,3.05972 1.28758,4.82353 -2.53101,25.85726 -1.46969,8.09544 -1.76603,8.75 -3.96147,8.75 -1.71794,-4.5e-4 -2.37294,-0.56077 -2.37294,-2.03039 v -2.02993 l -2.78306,2.0576 c -3.35326,2.47917 -8.92549,3.36316 -11.85286,1.88036 z m 12.90379,-7.41414 c 2.05267,-1.39483 3.73213,-3.36358 3.73213,-4.375 0,-1.01142 0.28125,-3.2452 0.625,-4.96395 0.60885,-3.04472 0.53052,-3.12545 -3.03212,-3.12545 -7.28711,0 -13.59288,4.47716 -13.59288,9.65108 0,5.5129 6.20177,6.93489 12.26787,2.81287 z m -400.267874,5.49703 c 0,-1.76132 6.39432,-38.34967 8.600377,-49.21143 0.424234,-2.08876 1.140553,-2.75 2.979078,-2.75 1.3313,0 2.391203,0.5625 2.35534,1.25 -0.03586,0.6875 -2.181001,12.725 -4.766974,26.75 -4.417123,23.95623 -4.836957,25.51935 -6.934795,25.81955 -1.724916,0.24684 -2.233026,-0.17596 -2.233026,-1.85812 z m 80.572934,0.46864 c -2.69206,-2.69206 -2.78302,-5.74483 -0.54669,-18.34911 1.96683,-11.08537 2.02121,-12.32808 0.58642,-13.39975 -2.04802,-1.5297 -1.03321,-5.68121 1.38875,-5.68121 1.39324,0 1.91385,-1.16617 2.45532,-5.5 0.63031,-5.04482 0.89766,-5.5 3.23045,-5.5 2.49938,0 2.53141,0.0949 1.85609,5.5 l -0.68718,5.5 h 5.18859 c 4.89275,0 5.1542,0.12829 4.58561,2.25 -0.33164,1.2375 -0.60913,2.5875 -0.61664,3 -0.008,0.4125 -2.41593,0.75 -5.35206,0.75 h -5.3384 l -1.75018,10.25 c -0.96259,5.6375 -1.59781,11.825 -1.41159,13.75 0.33025,3.41387 0.44317,3.49788 4.58858,3.41369 4.29779,-0.0873 4.94161,0.62043 3.64301,4.00452 -0.83451,2.17469 -9.6484,2.18354 -11.82008,0.0119 z m 17.87923,-0.68007 c 0.26964,-1.2375 1.63777,-8.775 3.04028,-16.75 3.78253,-21.50836 3.31467,-20 6.20359,-20 2.16704,0 2.46741,0.36467 2.05922,2.5 -0.57476,3.00667 -0.33585,3.04961 3.15137,0.56649 3.13757,-2.23414 7.49144,-3.51145 9.43155,-2.76697 0.88354,0.33905 1.1828,1.60427 0.87519,3.70014 -0.41374,2.81899 -0.76878,3.12732 -3.09015,2.68356 -2.68165,-0.51263 -7.29372,1.03495 -10.31157,3.46004 -1.14064,0.9166 -2.37418,5.24963 -3.80244,13.35674 -2.75777,15.65372 -2.70227,15.5 -5.59564,15.5 -2.02106,0 -2.36556,-0.39518 -1.9614,-2.25 z m 57.54633,0.56955 c -8.3e-4,-1.00075 1.41989,-9.80705 3.15716,-19.56955 3.03416,-17.05034 3.25102,-17.75 5.50151,-17.75 1.70189,0 2.34284,0.56579 2.34284,2.06809 0,2.05899 0.0121,2.05957 2.75,0.1312 1.5125,-1.06529 3.79567,-2.26179 5.07372,-2.65888 2.97132,-0.92319 7.92973,1.1074 8.71041,3.56714 0.73931,2.32935 1.80047,2.3995 3.59343,0.23755 1.65017,-1.9898 7.00885,-4.3451 9.88578,-4.3451 1.14266,0 3.18211,1.10455 4.53211,2.45455 3.1521,3.1521 3.18434,8.58063 0.14871,25.04545 -2.00508,10.87525 -2.42248,12.02995 -4.4533,12.31955 -2.83925,0.40488 -2.84555,-0.39208 -0.12494,-15.7867 2.3476,-13.28387 2.05174,-16.70168 -1.52345,-17.599 -2.47861,-0.62209 -7.36493,1.38213 -9.42688,3.86662 -0.8438,1.01672 -6.1055,26.16621 -6.16134,29.44953 -0.002,0.1375 -1.1855,0.25 -2.62925,0.25 -2.42176,0 -2.57527,-0.24865 -1.98268,-3.21158 0.35327,-1.76637 1.53736,-8.36602 2.63131,-14.66589 1.79945,-10.36271 1.84325,-11.67675 0.45963,-13.78842 -2.11961,-3.23493 -4.82006,-2.87714 -11.33633,1.50202 -0.78351,0.52654 -2.46726,6.96125 -4,15.28659 -2.43171,13.20827 -2.82988,14.40326 -4.89693,14.69683 -1.62564,0.23088 -2.25042,-0.18536 -2.25151,-1.5 z m 148.48388,-0.49959 c 0.74177,-3.09742 6.51763,-35.02845 6.51763,-36.03184 0,-0.43347 1.125,-0.78812 2.5,-0.78812 1.84562,0 2.5,0.53134 2.5,2.02994 0,1.99029 0.0596,1.98585 3.05304,-0.22728 1.98779,-1.46963 4.46745,-2.25721 7.10676,-2.25721 8.32,0 9.58626,6.29038 5.52661,27.45455 -1.9866,10.35674 -2.42861,11.53177 -4.44615,11.81955 -2.80851,0.40061 -2.81085,0.0634 -0.10681,-15.41098 1.1734,-6.71496 1.84154,-13.37206 1.48477,-14.79356 -0.94864,-3.77968 -4.60257,-4.32607 -9.78326,-1.46295 l -4.24847,2.34794 -2.58297,14.5 c -2.55435,14.33937 -2.6134,14.50354 -5.32985,14.81996 -2.42354,0.28229 -2.68149,0.0468 -2.1913,-2 z m 35.51763,-0.0385 c 0,-1.29672 1.35,-9.74836 3,-18.78143 1.65,-9.03307 3,-16.77842 3,-17.21188 0,-0.43347 1.125,-0.78812 2.5,-0.78812 3.10301,0 3.13325,-0.75783 -0.83802,21 -2.9586,16.20961 -3.35884,17.52356 -5.42805,17.81955 -1.77059,0.25327 -2.23393,-0.16946 -2.23393,-2.03812 z m -50.75744,-49.03143 c 2.99992,-5.47884 3.82622,-6.28965 6.69692,-6.57135 3.8063,-0.37351 3.8052,-0.36805 -1.43948,7.1011 -2.91428,4.15034 -4.63509,5.69977 -6.3398,5.7084 -2.33671,0.0118 -2.33528,0.004 1.08236,-6.23815 z m 58.12715,4 c 0.33164,-1.2375 0.60913,-2.8125 0.61664,-3.5 0.008,-0.7297 1.31093,-1.25 3.13028,-1.25 2.74406,0 3.04455,0.26898 2.51366,2.25 -0.33164,1.2375 -0.60913,2.8125 -0.61664,3.5 -0.008,0.7297 -1.31093,1.25 -3.13028,1.25 -2.74406,0 -3.04455,-0.26898 -2.51366,-2.25 z M 332.9967,469.87065 c -7.2184,-3.64864 -10.72683,-9.54821 -10.73189,-18.04609 -0.008,-14.18691 12.46948,-23.32443 24.23013,-17.74364 4.53013,2.14969 9.05449,9.24491 9.88438,15.50095 0.35175,2.65161 0.99157,4.82111 1.42182,4.82111 1.19501,0 5.83522,-5.8276 7.86973,-9.88353 0.99774,-1.98906 2.98415,-7.21647 4.41425,-11.61647 2.49113,-7.66447 22.67608,-79.82927 22.67608,-81.07103 0,-0.33046 -9.5625,-0.44469 -21.25,-0.25384 -19.44961,0.3176 -21.5889,0.52893 -25.25,2.49435 -5.09809,2.73685 -8.97431,6.82603 -10.94695,11.5484 -1.55593,3.72478 -2.08537,12.23134 -0.94606,15.20033 0.98538,2.56786 3.09725,1.81059 3.72662,-1.33628 0.75835,-3.79171 6.2572,-10.01301 10.36865,-11.73089 9.87486,-4.12597 20.57841,2.85152 22.7021,14.79919 0.88733,4.99196 -0.98382,12.60963 -4.10127,16.69682 -8.07855,10.59152 -28.4237,9.00789 -38.71347,-3.01339 -11.33916,-13.24726 -7.73409,-41.71643 6.91038,-54.57106 2.2,-1.93112 6.925,-4.9177 10.5,-6.63686 l 6.5,-3.12574 34.83281,-0.29859 c 33.14349,-0.28411 34.80647,-0.21137 34.28973,1.5 -0.2987,0.98922 -5.55137,20.02359 -11.67262,42.29859 -13.14106,47.81989 -13.70069,49.54393 -20.28763,62.5 -6.70337,13.18507 -18.60925,25.69617 -29.20608,30.69072 -9.82651,4.63148 -19.67058,5.09327 -27.22071,1.27695 z M 1.525241,453.47182 c -4.889224,-1.58752 -9.613721,-5.09003 -11.963638,-8.86925 -1.858366,-2.98868 -2.285336,-5.0447 -2.221977,-10.69959 0.100299,-8.95191 2.731318,-14.61994 10.780489,-23.22453 11.74394,-12.55431 31.085591,-19.23664 55.753811,-19.26233 l 12.612731,-0.0131 19.427109,-29.75 19.427114,-29.75 15.71016,-0.27539 c 8.64059,-0.15147 15.71016,0.0271 15.71016,0.39679 0,0.3697 -3.6,13.59007 -8,29.3786 -4.4,15.78853 -8,28.99748 -8,29.35321 0,0.35574 11.25,0.64679 25,0.64679 27.23235,0 26.61058,-0.15368 23.044,5.69567 -3.96058,6.49554 -5.10548,6.77076 -29.62651,7.1219 l -22.17707,0.31757 -4.75231,16.68243 c -2.61377,9.17534 -5.3853,18.81993 -6.15895,21.43243 l -1.40664,4.75 H 93.155066 c -10.50915,0 -11.48311,-0.15475 -11.01373,-1.75 0.2832,-0.9625 2.83254,-10.04038 5.66518,-20.17306 2.83265,-10.13269 5.37941,-19.02019 5.65946,-19.75 0.40223,-1.0482 -1.59643,-1.32694 -9.51455,-1.32694 H 73.927683 l -5.49056,7.83562 c -13.027842,18.59212 -25.567683,30.50224 -39.303985,37.33022 -7.154351,3.55626 -9.130981,4.08526 -16.5,4.41581 -4.604568,0.20655 -9.603122,-0.0242 -11.107897,-0.51281 z m 27.56579,-19.55564 c 7.424364,-3.52432 20.512052,-16.43182 27.136811,-26.7632 l 1.763374,-2.75 -5.36501,0.0174 c -6.998608,0.0226 -17.620033,2.30685 -22.643444,4.86961 -11.102815,5.66423 -17.778265,19.55633 -12.117399,25.2172 2.313997,2.31399 5.454306,2.14867 11.225668,-0.59097 z m 74.263259,-64.0132 c 3.48943,-11.55 6.2453,-21.33952 6.12417,-21.7545 -0.18531,-0.63476 -25.530024,39.88819 -26.565864,42.4754 -0.19173,0.47889 2.90172,0.73759 6.87434,0.5749 l 7.22294,-0.2958 z m 54.05651,76.65615 c -7.75915,-8.0988 -4.21839,-21.4654 6.05096,-22.84281 10.54763,-1.41474 16.30778,14.52447 8.1845,22.64775 -4.21788,4.21789 -10.30149,4.30124 -14.23546,0.19506 z m 144.56719,1.28315 c -7.33142,-5.13513 -6.75562,-18.79773 0.97297,-23.08644 7.27361,-4.03624 15.78938,2.13184 15.80365,11.4468 0.0121,7.86771 -4.42903,13.20034 -10.99341,13.20034 -1.95524,0 -4.55769,-0.70232 -5.78321,-1.5607 z m 134.18321,-1.8393 c -2.98635,-2.98635 -3.4,-4.02652 -3.4,-8.54966 0,-6.23 2.0323,-10.49856 5.96727,-12.53341 4.40966,-2.28033 7.5856,-1.84842 11.46695,1.55946 8.56284,7.51827 4.22334,22.92361 -6.4573,22.92361 -3.41689,0 -4.79558,-0.61866 -7.57692,-3.4 z m 80.90576,-0.0147 c -4.37513,-3.76533 -3.71595,-8.38182 5.50485,-38.5522 4.44891,-14.55679 7.99903,-26.5411 7.88916,-26.63179 -0.10987,-0.0907 -9.3628,13.97964 -20.56205,31.26741 -11.19925,17.28777 -21.52828,32.19708 -22.95339,33.13179 -3.24197,2.12637 -20.18433,3.12969 -20.18433,1.1953 0,-0.66175 5.625,-21.71892 12.5,-46.79371 6.875,-25.07479 12.5,-46.16775 12.5,-46.87324 0,-0.98442 -4.07472,-1.34621 -17.5222,-1.55579 l -17.52219,-0.27307 4.70393,-9.75 4.70392,-9.75 h 24.16328 c 23.30327,0 24.23109,0.075 26.06827,2.1071 3.01642,3.33643 2.16918,9.08509 -5.43732,36.8929 -3.83637,14.025 -6.84241,25.63637 -6.68008,25.80304 0.16233,0.16667 7.14617,-9.61355 15.51966,-21.73382 16.08832,-23.28718 20.77155,-28.56002 26.28513,-29.59438 6.06164,-1.13717 8.96715,-0.2487 11.52819,3.52516 3.20835,4.72771 2.76456,7.65338 -5.11953,33.75 -3.53093,11.6875 -6.27421,21.25 -6.09616,21.25 0.17804,0 6.37579,-7.7625 13.77278,-17.25 16.17686,-20.74871 18.1662,-22.74366 23.37658,-23.44252 4.86559,-0.65262 7.72797,0.77124 9.86739,4.90843 2.53132,4.89504 1.34075,11.56683 -7.04367,39.47174 -4.16239,13.8532 -7.56798,25.6657 -7.56798,26.25 0,0.69921 4.78552,1.06235 14,1.06235 15.32476,0 15.47382,0.0706 12.04048,5.70145 -3.72707,6.1126 -6.41939,6.79855 -26.68418,6.79855 -16.43828,0 -18.34169,-0.17906 -20.25,-1.90499 -3.30508,-2.98919 -2.66206,-8.40721 3.3937,-28.59501 3.025,-10.0843 5.5,-18.55274 5.5,-18.81876 0,-0.26602 -7.40069,9.87391 -16.44597,22.53318 -9.04529,12.65928 -17.85481,24.20233 -19.57673,25.65122 -4.15064,3.49254 -9.76382,3.58273 -13.67154,0.21966 z M 200.7745,445.79709 c -5.73126,-1.53998 -8.92133,-3.22118 -12.85831,-6.77646 -7.63661,-6.89619 -8.69108,-21.68219 -2.43026,-34.07744 3.61125,-7.14959 14.55745,-17.56921 22.63427,-21.54541 3.65255,-1.79814 6.63566,-3.32008 6.62913,-3.38208 -0.007,-0.062 -0.67619,-2.58772 -1.48813,-5.61272 -0.81194,-3.025 -1.4816,-8.93611 -1.48813,-13.13581 -0.0152,-9.77959 3.20473,-16.5403 10.53831,-22.12666 8.1458,-6.20508 14.90953,-7.73753 34.15086,-7.73753 18.262,0 20.02806,0.47198 24.12194,6.4466 4.74836,6.92979 5.356,14.47945 1.78299,22.1529 -2.7518,5.90979 -7.07412,9.38535 -12.5924,10.12551 -5.37746,0.72127 -8.36678,-0.21822 -12.64419,-3.97384 -4.71489,-4.13973 -6.36938,-8.22285 -6.36938,-15.71905 v -6.03212 h -4.92857 c -5.48317,0 -7.49938,1.38664 -9.71034,6.67822 -1.81748,4.34983 -1.69784,7.40618 0.63891,16.32178 2.38979,9.11798 2.49076,12.85434 0.42697,15.80081 -0.86517,1.2352 -5.62029,4.96718 -10.56692,8.29329 -6.19978,4.16873 -9.87872,7.44273 -11.84208,10.53862 -5.26748,8.30596 -6.42782,20.04044 -2.56465,25.93638 3.49725,5.33748 6.40972,5.80551 38.79668,6.23456 21.54497,0.28542 29.74897,0.71159 29.74626,1.54523 -0.009,2.82532 -4.34617,7.90748 -8.26692,9.68729 -3.88674,1.76437 -6.74049,1.91634 -35.22934,1.87605 -24.05655,-0.034 -32.22892,-0.37406 -36.4867,-1.51812 z"
       id="path22"
       inkscape:connector-curvature="0" />
  </g>
</svg>
